<?xml version="1.0" encoding="utf-8"?>
<!-- Generator: Adobe Illustrator 25.0.1, SVG Export Plug-In . SVG Version: 6.00 Build 0)  -->
<svg version="1.1" id="Layer_1" xmlns="http://www.w3.org/2000/svg" xmlns:xlink="http://www.w3.org/1999/xlink" x="0px" y="0px"
	 viewBox="0 0 220 220" style="enable-background:new 0 0 220 220;" xml:space="preserve">
<style type="text/css">
	.st0{fill-rule:evenodd;clip-rule:evenodd;fill:#FF375F;}
</style>
<path class="st0" d="M89.6,134H120c8.5,0,14.8-5.9,15.2-14.2c0.3-6.4-2.7-9.6-8.4-11.8c3.8-1.3,5.9-4.6,6-8.5
	c0.2-7.2-5.6-13.5-12.7-13.5H89.6V134z M113,99.5h-4.9v4.9h4.9c1.4,0,2.5-1.1,2.5-2.5C115.5,100.6,114.4,99.5,113,99.5z
	 M108.1,114.3h5.5c1.7,0,3.1,1.4,3.1,3.1c0,1.7-1.4,3.1-3.1,3.1h-5.5V114.3z"/>
<path class="st0" d="M170,110c0,33.1-26.9,60-60,60c-33.1,0-60-26.9-60-60c0-33.1,26.9-60,60-60C143.1,50,170,76.9,170,110z
	 M160.8,110c0,28-22.7,50.8-50.8,50.8c-28,0-50.8-22.7-50.8-50.8c0-28,22.7-50.8,50.8-50.8C138,59.2,160.8,82,160.8,110z"/>
</svg>
